<svg width="162" height="29" viewBox="0 0 162 29" fill="none" xmlns="http://www.w3.org/2000/svg">
<path d="M0.72 28H7.6V24.76H4.12V15.24H7.2V12H4.12V3.24H7.6V-1.90735e-06H0.72V28ZM8.5325 28H11.9325V12.48C11.9325 11.44 12.2125 10.84 12.7325 10.84C13.2125 10.84 13.4925 11.28 13.4925 12.04V28H16.8925V12.04C16.8925 9.16 15.9325 7.6 14.2125 7.6C12.4525 7.6 11.4525 9.16 11.4525 12.08H10.8925L11.2925 8H8.5325V28ZM23.0972 15.88V24.2C23.0972 24.84 22.8972 25.2 22.4572 25.2C21.9772 25.2 21.7372 24.8 21.7772 24.16L22.3372 11.24H26.3772V8H22.4572L22.7372 1.96H19.2972L19.0172 8H17.7372V11.24H18.8972L18.3372 24.2C18.2172 26.92 19.6572 28.4 22.4572 28.4C25.0572 28.4 26.4572 26.92 26.4572 24.2V15.88H23.0972ZM35.6731 18.88L36.0731 11.84C36.2331 9.08 34.5931 7.6 31.8731 7.6C29.1531 7.6 27.6731 9.08 27.6731 11.84V24.2C27.6731 26.92 29.1531 28.4 31.8731 28.4C34.5931 28.4 36.0731 26.92 36.0731 24.2V20.96H32.6331V23.96C32.6331 24.72 32.3931 25.16 31.8731 25.16C31.3531 25.16 31.0731 24.72 31.0731 23.96V18.88H35.6731ZM31.8731 10.84C32.3931 10.84 32.6731 11.28 32.6331 12.04L32.3931 16.28H31.0731V12.04C31.0731 11.28 31.3531 10.84 31.8731 10.84ZM37.3997 28H40.8397V12.48C40.8397 11.44 41.1197 10.84 41.6397 10.84C42.1197 10.84 42.3997 11.28 42.3597 12.04L41.9997 18.6H45.3997L45.7197 11.84C45.8797 9.08 44.9197 7.6 43.0797 7.6C41.3197 7.6 40.3197 9.16 40.3197 12.08H39.7597L40.1597 8H37.3997V28ZM51.6128 15.88V24.2C51.6128 24.84 51.4128 25.2 50.9728 25.2C50.4928 25.2 50.2528 24.8 50.2928 24.16L50.8528 11.24H54.8928V8H50.9728L51.2528 1.96H47.8128L47.5328 8H46.2528V11.24H47.4128L46.8528 24.2C46.7328 26.92 48.1728 28.4 50.9728 28.4C53.5728 28.4 54.9728 26.92 54.9728 24.2V15.88H51.6128ZM58.7088 28.4C60.5088 28.4 61.4688 26.84 61.4688 23.92H62.0288L62.5488 28H64.3888V11.84C64.3888 9.08 62.9488 7.6 60.1888 7.6C57.3088 7.6 55.8288 9.08 56.0288 11.84L56.2688 15.04H59.6688L59.4688 12.04C59.3888 11.28 59.6688 10.84 60.1888 10.84C60.6688 10.84 60.9488 11.28 60.9488 12.04L60.9888 17.8H60.4288C60.2688 16.88 59.6288 16.36 58.5888 16.36C56.9088 16.36 55.9888 17.68 55.9888 20.24V23.96C55.9888 26.84 56.9488 28.4 58.7088 28.4ZM60.1888 25.16C59.6688 25.16 59.4288 24.72 59.4288 23.96V19.6C59.4288 18.84 59.6688 18.44 60.1888 18.44C60.6688 18.44 60.9488 18.96 60.9488 19.92V23.52C60.9488 24.56 60.6688 25.16 60.1888 25.16ZM65.8372 5.72H69.3172V1.96H65.8372V5.72ZM65.8372 28H69.2372V8H65.8372V28ZM70.6809 28H74.0809V12.48C74.0809 11.44 74.3609 10.84 74.8809 10.84C75.3609 10.84 75.6409 11.28 75.6409 12.04V28H79.0409V12.04C79.0409 9.16 78.0809 7.6 76.3609 7.6C74.6009 7.6 73.6009 9.16 73.6009 12.08H73.0409L73.4409 8H70.6809V28ZM80.4856 28H83.9256V12.48C83.9256 11.44 84.2056 10.84 84.6856 10.84C85.1656 10.84 85.4056 11.28 85.4056 12.04V28H88.8456V12.48C88.8456 11.44 89.1256 10.84 89.6056 10.84C90.0856 10.84 90.3256 11.28 90.3256 12.04V28H93.7656V12.04C93.7656 9.16 92.8456 7.6 91.1256 7.6C89.3656 7.6 88.4056 9.16 88.4056 12.08H87.8456C88.1656 9 87.4856 7.6 85.9256 7.6C84.3656 7.6 83.5256 9.16 83.5256 12.08H82.9256L83.3256 8H80.4856V28ZM103.212 18.88L103.612 11.84C103.772 9.08 102.132 7.6 99.4122 7.6C96.6922 7.6 95.2122 9.08 95.2122 11.84V24.2C95.2122 26.92 96.6922 28.4 99.4122 28.4C102.132 28.4 103.612 26.92 103.612 24.2V20.96H100.172V23.96C100.172 24.72 99.9322 25.16 99.4122 25.16C98.8922 25.16 98.6122 24.72 98.6122 23.96V18.88H103.212ZM99.4122 10.84C99.9322 10.84 100.212 11.28 100.172 12.04L99.9322 16.28H98.6122V12.04C98.6122 11.28 98.8922 10.84 99.4122 10.84ZM104.939 28H108.339V12.48C108.339 11.44 108.619 10.84 109.139 10.84C109.619 10.84 109.899 11.28 109.899 12.04V28H113.299V12.04C113.299 9.16 112.339 7.6 110.619 7.6C108.859 7.6 107.859 9.16 107.859 12.08H107.299L107.699 8H104.939V28ZM119.503 15.88V24.2C119.503 24.84 119.303 25.2 118.863 25.2C118.383 25.2 118.143 24.8 118.183 24.16L118.743 11.24H122.783V8H118.863L119.143 1.96H115.703L115.423 8H114.143V11.24H115.303L114.743 24.2C114.623 26.92 116.063 28.4 118.863 28.4C121.463 28.4 122.863 26.92 122.863 24.2V15.88H119.503ZM130.31 28H136.87L138.19 -1.90735e-06H134.83L133.95 18.64L133.87 24.76H133.31L133.19 18.64L132.31 -1.90735e-06H128.95L130.31 28ZM139.118 5.72H142.598V1.96H139.118V5.72ZM139.118 28H142.518V8H139.118V28ZM151.962 18.88L152.362 11.84C152.522 9.08 150.882 7.6 148.162 7.6C145.442 7.6 143.962 9.08 143.962 11.84V24.2C143.962 26.92 145.442 28.4 148.162 28.4C150.882 28.4 152.362 26.92 152.362 24.2V20.96H148.922V23.96C148.922 24.72 148.682 25.16 148.162 25.16C147.642 25.16 147.362 24.72 147.362 23.96V18.88H151.962ZM148.162 10.84C148.682 10.84 148.962 11.28 148.922 12.04L148.682 16.28H147.362V12.04C147.362 11.28 147.642 10.84 148.162 10.84ZM158.449 15.88V24.2C158.449 24.84 158.249 25.2 157.809 25.2C157.329 25.2 157.089 24.8 157.129 24.16L157.689 11.24H161.729V8H157.809L158.089 1.96H154.649L154.369 8H153.089V11.24H154.249L153.689 24.2C153.569 26.92 155.009 28.4 157.809 28.4C160.409 28.4 161.809 26.92 161.809 24.2V15.88H158.449Z" fill="#8A6DFF"/>
</svg>
