<svg width="196" height="20" viewBox="0 0 196 20" fill="none" xmlns="http://www.w3.org/2000/svg">
<path d="M56.6276 8.62227L56.4866 8.5H56.3H5C3.12297 8.5 1.48881 9.40248 0.5 10.8049V5C0.5 2.47614 2.47614 0.5 5 0.5H191C193.524 0.5 195.5 2.47614 195.5 5V10.8049C194.511 9.40248 192.877 8.5 191 8.5H136.7H136.512L136.371 8.62371L125.171 18.4237L125.168 18.4263C124.371 19.1349 123.293 19.5 122.2 19.5H70.9C69.8065 19.5 68.7294 19.1349 67.9322 18.4263L67.9276 18.4223L56.6276 8.62227Z" fill="#1D1C4D" stroke="url(#paint0_linear_1161_4852)"/>
<defs>
<linearGradient id="paint0_linear_1161_4852" x1="220.5" y1="20" x2="69.5" y2="-14.5" gradientUnits="userSpaceOnUse">
<stop stop-color="#0023F2" stop-opacity="0"/>
<stop offset="1" stop-color="#404B8D"/>
</linearGradient>
</defs>
</svg>
