<svg width="261" height="69" viewBox="0 0 261 69" fill="white" xmlns="http://www.w3.org/2000/svg">
<path d="M142.932 52.0699C142.796 52.0019 142.728 51.934 142.591 51.866C140.542 50.7785 139.86 48.6715 140.816 46.4965C141.294 45.4769 142.045 44.5254 143.001 43.9137C143.342 43.6418 143.684 43.4379 144.025 43.166C143.752 42.9621 143.479 42.8262 143.274 42.6902C138.972 39.7676 139.245 33.6504 143.82 31.2715C147.439 29.3684 151.195 29.3684 154.883 31.2035C155.019 31.2715 155.156 31.2715 155.292 31.2715C155.429 31.2715 155.565 31.2035 155.702 31.1355C157.204 30.184 158.707 29.2324 160.209 28.2809C160.414 28.1449 160.619 28.009 160.96 27.873V32.359L156.658 32.1551C156.726 32.291 156.863 32.4949 156.999 32.6309C160.004 35.6215 159.526 40.7871 155.156 43.098C152.151 44.7293 148.942 44.7972 145.664 43.7777C144.913 43.5058 144.503 43.7777 144.162 44.2535C143.206 45.409 143.684 46.8363 145.118 47.1082C145.937 47.2441 146.756 47.3121 147.576 47.3121C149.761 47.3121 152.015 47.3121 154.2 47.3801C156.043 47.448 157.887 47.7199 159.389 48.8754C160.004 49.3511 160.55 50.0308 160.892 50.7105C161.233 51.4582 161.438 52.2738 161.438 53.0894C161.438 53.905 161.301 54.7207 160.96 55.4683C160.619 56.216 160.141 56.8957 159.526 57.3714C157.682 58.9347 155.565 59.6144 153.244 59.9543C149.625 60.498 145.937 60.43 142.386 59.4785C141.567 59.2066 140.747 58.8668 139.996 58.391C138.63 57.5074 138.426 55.8082 139.45 54.5847C139.996 53.905 140.747 53.4293 141.43 52.9535C141.908 52.5457 142.386 52.2738 142.932 52.0699ZM149.829 59.4785L149.898 59.3425C150.785 59.2746 151.673 59.2746 152.493 59.1386C153.858 58.9347 155.224 58.6629 156.317 57.7113C156.726 57.3714 156.999 56.9636 157.204 56.4879C157.409 56.0121 157.409 55.4683 157.273 54.9246C157.068 53.8371 156.385 53.2933 155.361 53.0894C154.541 52.9535 153.722 52.8175 152.902 52.8175C149.898 52.7496 146.961 53.0894 144.025 52.4777C143.957 52.4777 143.888 52.4777 143.82 52.5457C143.752 52.5457 143.684 52.6136 143.615 52.6816C142.864 53.4972 142.454 54.4488 142.591 55.6043C142.659 56.3519 142.932 56.9636 143.41 57.5074C143.888 58.0511 144.503 58.4589 145.186 58.5949C146.688 59.0027 148.259 59.2066 149.829 59.4785ZM152.834 37.1168H152.629C152.629 35.5535 152.561 33.9223 151.946 32.4269C151.468 31.3394 150.717 30.6598 149.488 30.6598C148.327 30.6598 147.371 31.2715 147.03 32.4269C146.688 33.5144 146.483 34.6699 146.415 35.8254C146.278 37.7285 146.279 39.6316 146.961 41.4668C147.439 42.7582 148.259 43.3699 149.488 43.3699C150.034 43.3699 150.649 43.234 151.059 42.8941C151.537 42.5543 151.81 42.0105 151.946 41.4668C152.424 40.1074 152.561 38.6121 152.834 37.1168Z" fill="white"/>
<path d="M113.228 31.6791C116.028 31.0674 118.623 30.4557 121.286 29.844C121.764 29.708 121.764 29.9799 121.764 30.3877C121.764 31.2713 121.764 32.0869 121.764 33.1064L122.379 32.5627C124.905 30.3877 127.705 29.2322 130.983 30.1158C132.212 30.3877 133.373 31.1354 134.124 32.1549C134.943 33.1744 135.353 34.4658 135.285 35.8252C135.285 39.7674 135.285 43.7096 135.285 47.6517C135.285 47.9236 135.285 48.1955 135.421 48.3994C135.49 48.6713 135.694 48.8752 135.831 49.0111C136.377 49.5549 136.855 50.0986 137.402 50.6424C137.538 50.8463 137.743 51.0502 137.88 51.2541H126.681C126.954 50.9142 127.227 50.5744 127.5 50.3025C128.934 49.1471 129.344 47.6517 129.276 45.8166C129.139 42.6221 129.276 39.4275 129.207 36.233C129.207 34.8057 128.798 33.5822 127.432 32.8346C125.861 32.019 123.13 32.5627 121.969 33.9221C121.832 34.126 121.764 34.3299 121.764 34.5338C121.764 39.0197 121.764 43.5057 121.764 47.9236C121.764 48.1955 121.901 48.4674 122.106 48.7392C122.652 49.351 123.198 49.9627 123.744 50.5744C123.881 50.7103 124.018 50.9142 124.222 51.1861H113.092C113.297 50.9142 113.502 50.6424 113.706 50.4385C115.414 49.215 115.823 47.5158 115.755 45.4088C115.618 41.8064 115.687 38.2041 115.755 34.6697C115.755 34.3979 115.755 34.1939 115.618 33.9221C115.482 33.7182 115.345 33.5143 115.14 33.3783C114.662 33.0385 114.253 32.6307 113.843 32.2908C113.57 32.0869 113.365 31.883 113.228 31.6791Z" fill="white"/>
<path d="M174.002 21.4844H198.312V29.1648C198.039 28.825 197.902 28.6891 197.765 28.4851C196.468 26.65 195.171 24.8148 193.873 22.9797C193.805 22.8437 193.668 22.7078 193.463 22.6398C193.327 22.5719 193.122 22.5039 192.917 22.5039C191.756 22.5039 190.664 22.5039 189.435 22.5039V23.3875C189.435 31.2039 189.435 39.0203 189.435 46.7687C189.435 47.0406 189.435 47.2445 189.503 47.5164C189.571 47.7882 189.708 47.9921 189.844 48.1961C190.527 48.9437 191.142 49.7593 191.756 50.575C191.893 50.7789 192.029 51.0507 192.166 51.2546H180.011C180.148 50.9828 180.284 50.7789 180.421 50.507C181.104 49.6234 181.786 48.8078 182.469 47.9242C182.674 47.6523 182.742 47.3804 182.811 47.0406C182.811 39.0203 182.811 31 182.811 22.9797C182.811 22.8437 182.811 22.7078 182.742 22.4359C181.445 22.4359 180.148 22.4359 178.85 22.4359C178.645 22.4359 178.44 22.7078 178.304 22.9117C177.006 24.7469 175.709 26.582 174.412 28.4172C174.275 28.6211 174.138 28.757 173.934 29.0969L174.002 21.4844Z" fill="white"/>
<path d="M86.6656 31.3395C86.529 31.1356 86.3924 30.8637 86.2558 30.6598C85.4364 28.2129 84.2073 25.9699 82.3635 24.2028C79.0858 21.0762 73.2815 21.0082 70.6866 26.1738C69.5258 28.4168 69.0478 30.8637 68.7746 33.3785C68.5015 36.709 68.5698 39.9715 69.4575 43.234C69.7989 44.5254 70.3452 45.7488 70.9598 46.9722C73.3498 51.1863 78.5395 51.934 82.0904 48.8074C84.139 47.0402 85.3681 44.7293 86.2558 42.2144C86.3241 42.0105 86.4607 41.8066 86.5973 41.6027L86.8021 41.6707C86.8021 41.8066 86.8021 42.0105 86.8021 42.1465C86.6656 44.5254 86.4607 46.9043 86.3241 49.2832C86.3241 49.5551 86.2558 49.759 86.1193 49.9629C85.9827 50.1668 85.7778 50.3027 85.573 50.3027C82.2952 51.3222 79.0175 51.934 75.6032 51.7301C68.4332 51.3222 62.424 46.4285 61.6729 38.4762C61.2632 34.0582 62.1509 29.9121 64.9506 26.3777C67.4772 23.1153 70.9598 21.552 74.9204 21.1442C78.6078 20.7364 82.1587 21.484 85.7096 22.5715C86.051 22.7074 86.3241 22.8434 86.3241 23.2512C86.4607 25.834 86.6656 28.4168 86.8021 30.9996C86.8021 31.0676 86.7338 31.0676 86.6656 31.3395Z" fill="white"/>
<path d="M101.074 51.7993C97.1816 51.7314 94.1088 50.44 91.9236 47.4493C87.7582 41.8759 89.6019 32.0205 98.2742 30.1173C102.781 29.0978 106.81 30.2533 109.746 34.1275C114.117 39.9048 111.863 49.9642 103.054 51.5954C102.303 51.7314 101.552 51.7314 101.074 51.7993ZM96.2256 40.7884C96.2256 40.9923 96.2256 41.1283 96.2256 41.3322C96.2939 43.7111 96.4305 46.1579 97.4548 48.3329C98.0011 49.4884 98.6839 50.5079 99.9814 50.8478C101.825 51.3236 103.396 50.44 104.215 48.4009C105.649 45.0025 105.581 41.4001 105.308 37.7978C105.239 36.0986 104.83 34.4673 104.147 32.972C103.532 31.7486 102.713 30.6611 101.279 30.5252C99.5717 30.3212 98.2059 31.2728 97.3865 33.108C96.3622 35.6908 96.2939 38.2056 96.2256 40.7884Z" fill="white"/>
<path d="M228.223 51.7985C224.262 51.7306 221.189 50.4392 218.936 47.3126C214.907 41.7392 216.75 32.0197 225.286 30.1165C229.861 29.097 233.89 30.2525 236.895 34.1947C241.197 39.904 239.012 49.8954 230.203 51.5946C229.452 51.7306 228.701 51.7306 228.223 51.7985ZM223.374 40.7876C223.374 41.0595 223.374 41.3314 223.374 41.6032C223.511 43.9142 223.647 46.2251 224.535 48.4001C225.354 50.4392 226.993 51.3907 228.837 50.915C230.135 50.5751 230.886 49.5556 231.432 48.3321C232.798 45.0017 232.729 41.5353 232.525 38.0689C232.456 36.3697 232.047 34.6704 231.364 33.0392C230.749 31.7478 229.93 30.7283 228.496 30.5244C226.788 30.2525 225.354 31.204 224.603 33.1072C223.511 35.622 223.374 38.2048 223.374 40.7876Z" fill="white"/>
<path d="M210.537 51.2542H199.201C199.338 51.0503 199.406 50.9143 199.474 50.7784C199.543 50.7104 199.543 50.6424 199.611 50.6424C200.294 49.8948 201.25 49.2831 201.591 48.3995C201.933 47.4479 201.728 46.2924 201.728 45.2049C201.728 41.8065 201.728 38.3401 201.728 34.9417C201.728 34.194 201.591 33.6503 200.908 33.1745C200.362 32.7667 199.884 32.2909 199.269 31.7472C199.474 31.6112 199.747 31.5432 199.952 31.4753C202.342 30.9315 204.732 30.3878 207.122 29.844C207.669 29.7081 207.805 29.912 207.805 30.3878C207.805 31.4073 207.805 32.3589 207.805 33.4464C210.059 30.7276 212.654 29.1643 216.273 29.844C215.931 32.155 215.522 34.33 215.18 36.7089C214.907 36.369 214.77 36.2331 214.566 36.0292C213.746 35.2815 213.063 34.3979 212.176 33.7862C210.878 32.9706 209.376 33.2425 208.215 34.262C207.942 34.5339 207.805 34.8057 207.805 35.2136C207.805 39.4276 207.805 43.5737 207.805 47.7878C207.805 48.1276 207.942 48.4674 208.215 48.6713C208.761 49.2831 209.376 49.8948 209.99 50.5065C210.195 50.7784 210.264 50.9823 210.537 51.2542Z" fill="white"/>
<path d="M240.377 31.6796C242.152 31.2718 243.791 30.864 245.43 30.5241C246.318 30.3202 247.274 30.1843 248.161 29.9124C248.776 29.7085 248.913 29.9124 248.913 30.5241C248.913 36.2335 248.913 41.8749 248.913 47.5842C248.913 47.8561 248.913 48.128 249.049 48.3319C249.117 48.6038 249.322 48.8077 249.459 48.9436C250.005 49.4194 250.483 50.0311 251.029 50.5749C251.166 50.7108 251.303 50.9147 251.507 51.1866H240.309C240.377 51.0506 240.445 50.9147 240.513 50.7788C240.582 50.7108 240.65 50.5749 240.718 50.5069C241.401 49.7592 242.357 49.1475 242.63 48.3319C242.903 47.5163 242.767 46.2928 242.767 45.2733C242.767 41.7389 242.767 38.2046 242.767 34.6702C242.767 34.3983 242.767 34.1265 242.63 33.8546C242.494 33.5827 242.357 33.3788 242.084 33.2429C241.674 32.903 241.196 32.5632 240.855 32.1554C240.65 32.0874 240.513 31.8835 240.377 31.6796Z" fill="white"/>
<path d="M242.152 23.5922C242.152 21.6211 243.586 20.2617 245.567 20.2617C247.547 20.2617 249.049 21.6891 249.049 23.6602C249.049 25.5633 247.547 26.9226 245.567 26.9226C243.518 26.8547 242.152 25.4953 242.152 23.5922Z" fill="white"/>
<path d="M95.3379 29.0976L101.142 22.3008L106.947 29.0976H105.581L101.21 26.175L96.8402 29.0976H95.3379Z" fill="white"/>
<path d="M108.107 25.698C108.654 25.4941 109.063 25.1543 109.405 24.6785C109.678 24.2707 109.883 23.591 109.883 22.7754C109.883 21.8918 109.746 21.2121 109.405 20.8043C109.063 20.3965 108.585 20.1926 107.903 20.1926C107.629 20.1926 107.356 20.2605 107.083 20.3285L106.742 20.3965V22.7074L106.605 22.7754H106.469C105.103 22.7754 104.42 22.4355 104.42 21.6879C104.42 20.1926 105.649 19.377 108.107 19.377C111.385 19.377 112.956 20.4645 112.956 22.7074C112.956 23.1152 112.887 23.4551 112.683 23.8629C112.546 24.2027 112.273 24.5426 111.931 24.7465C111.249 25.2902 110.361 25.6301 109.2 25.834L109.132 26.9894H108.039L108.107 25.698Z" fill="white"/>
<path d="M229.178 28.4859L227.608 22.3008H222.418L227.813 28.4859H229.178Z" fill="white"/>
<path d="M237.85 30.3199C238.191 30.048 238.464 29.6402 238.669 29.2324C238.874 28.8246 238.942 28.3488 238.942 27.873C239.011 27.1254 238.806 26.3098 238.464 25.6301C238.328 25.3582 238.191 25.1543 237.918 25.0184C237.713 24.8824 237.44 24.8145 237.167 24.8145C236.826 24.8145 236.416 24.8145 236.074 24.8824L235.596 25.0184V30.2519L234.436 30.3879C233.889 30.4558 233.275 30.5238 232.592 30.5918L234.162 31.3394C235.938 31.2715 237.167 30.9316 237.85 30.3199Z" fill="white"/>
</svg>
