<svg width="140" height="69" id="Layer_1" data-name="Layer 1" xmlns="http://www.w3.org/2000/svg" viewBox="0 0 972.07 253.44"><defs><style>.cls-1{fill:#fff;}</style></defs><g id="Edv3Lf.tif"><path class="cls-1" d="M600.67,449.09l-28.06-1.93-.59.63a56.65,56.65,0,0,1,4.62,4,36.35,36.35,0,0,1-.71,51.25c-8,8.06-17.81,12.82-28.7,15.24-17.4,3.87-34.69,3.42-51.66-2.59-.64-.23-1.88-.18-2.16.22-1.65,2.35-3.67,4.66-4.47,7.32-1.59,5.27,1.27,10.15,6.69,11.14A99.36,99.36,0,0,0,512,535.74c13.49.21,27,0,40.47.16,11.4.16,22.52,1.75,32.91,7,19.54,9.81,23.38,36.4,10.68,51.58-5.18,6.2-11.71,10.54-19,13.84-11.9,5.38-24.52,7.89-37.44,8.91a229.92,229.92,0,0,1-46.62-1c-9.36-1.15-18.65-2.78-27-7.46a27.85,27.85,0,0,1-7.49-6c-4.05-4.74-4.22-10.91-1-16.27a27.37,27.37,0,0,1,11.3-10.29c4-2,8.11-3.82,12.23-5.75a5.08,5.08,0,0,0-.92-.62c-14.42-6.23-17.34-21-13.09-32.82,3-8.47,8.94-14.68,15.95-20,1.77-1.35,3.61-2.62,5.68-4.11-1.64-1-3.11-1.86-4.55-2.77-9.95-6.27-16.92-14.78-19.13-26.52-2.34-12.42.81-23.5,9.56-32.67,9.07-9.51,20.69-14.31,33.39-16.65,15.57-2.87,31-2.34,46,3.14a24,24,0,0,1,5.26,2.25c2.52,1.71,4.44,1.26,6.9-.34,10.31-6.73,20.76-13.24,31.19-19.79a11.75,11.75,0,0,1,2.7-.91,13.78,13.78,0,0,1,.59,2.72c.06,8.32.07,16.64.09,25ZM527.43,611.26c3.49,0,7,.38,10.47-.08,6.83-.9,13.73-1.75,20.35-3.56s12.63-5.32,15-12.66c2.17-6.78-.24-13.14-6.7-16a29.74,29.74,0,0,0-10.32-2.53c-8.22-.42-16.47-.43-24.7-.28-14.34.27-28.65.51-42.76-2.66a2.73,2.73,0,0,0-2.27.82,19.9,19.9,0,0,0-4.53,16.28c1.41,8.69,7.05,13.64,14.77,16.71C506.59,611.21,517,611.35,527.43,611.26ZM541.06,476.7c0-3.91.4-7.87-.09-11.71a122.62,122.62,0,0,0-3.39-17.54,12,12,0,0,0-12.23-8.79c-5.81.13-10.13,3.34-12.07,9.08a42.35,42.35,0,0,0-1.65,6c-2.2,12.12-2.14,24.35-1.11,36.54a81.51,81.51,0,0,0,3.18,15.8A11.09,11.09,0,0,0,522,514c7.23,1.79,13.28-1.48,15.88-8.49C541.32,496.18,541.11,486.41,541.06,476.7Z" transform="translate(-15.63 -373.59)"/><path class="cls-1" d="M220.28,513.76,280.73,457c-6.61-6.79-13.08-13.43-19.54-20.1-.11-.12,0-.47.05-.93h53.51a16,16,0,0,1-1.92,2.35c-2.87,2.27-5.72,4.58-8.73,6.66-16.36,11.29-29.66,25.92-44.1,39.69,1.66,2.07,3.24,4.07,4.84,6.06q28,34.53,55.93,69.08a32.88,32.88,0,0,1,2.25,3.88c-1.58.07-2.38.14-3.18.14-16.74,0-33.48,0-50.23,0a3.87,3.87,0,0,1-3.6-2q-16.95-24.54-34-49c-.52-.74-1.06-1.47-1.8-2.5-3.23,3-6.38,5.91-9.43,8.91a3.21,3.21,0,0,0-.47,2.08c0,6.49-.07,13,0,19.47a6.75,6.75,0,0,0,1.1,3.41c3.58,5.41,7.3,10.73,10.91,16.12a25.84,25.84,0,0,1,1.57,3.3h-73a15.46,15.46,0,0,1,1.22-3.07c3.58-5.31,7.3-10.53,10.84-15.87a7.46,7.46,0,0,0,1.25-3.86q.09-68.65,0-137.3a6.88,6.88,0,0,0-1.36-3.78c-2.81-3.81-5.83-7.47-8.74-11.22-1.67-2.17-1.37-3,1.23-3.52l51.18-11.24c3-.66,3.73-.11,3.73,3V513.76Z" transform="translate(-15.63 -373.59)"/><path class="cls-1" d="M140.59,441.51a11.25,11.25,0,0,1-1.67-2.29c-4-10-8.7-19.61-15.2-28.26-6.18-8.22-13.4-15.25-23-19.52a42.49,42.49,0,0,0-25.85-3.26c-20.5,3.92-22.79,26.66-14.05,37.66a41.62,41.62,0,0,0,12.5,10.59c8.79,4.88,17.74,9.48,26.68,14.08,10.23,5.27,20.26,10.84,29.09,18.31,11.21,9.49,19.19,21,21.41,35.8,3.07,20.58-4.14,41.45-26.15,52.67-10.39,5.29-21.53,7.91-33,8.93a173.65,173.65,0,0,1-65.15-7c-4.83-1.44-4.89-1.52-5.2-6.48-1-15.44-1.91-30.89-2.86-46.34a4.84,4.84,0,0,1,.09-.73c1.78-.92,2.11.4,2.58,1.56,4.21,10.46,9.24,20.47,16.25,29.36C43.65,544.93,51.34,552,61.38,556a47.18,47.18,0,0,0,31.09,1.64c10.85-3,16.28-10.74,17.87-21.66,1.34-9.16-1.3-17-8-23.05A141,141,0,0,0,84.17,499c-7.89-5.08-16.26-9.42-24.47-14-9.18-5.12-18.08-10.64-26-17.63-8.09-7.14-14.37-15.49-16.86-26.22-4.69-20.25,4.3-40.31,22.66-50.65,9.27-5.23,19.34-8,29.81-9.4,22.39-3.08,44.13,0,65.45,7,2.1.68,2.93,1.65,3.08,4,1,14.69,2.14,29.37,3.24,44.06.12,1.63.18,3.28.27,4.92Z" transform="translate(-15.63 -373.59)"/><path class="cls-1" d="M686.58,547.46a61.55,61.55,0,0,1-18.3,14.12c-12,5.86-24.36,7-37,2.64-16.9-5.87-21.28-22.26-16.35-36.05a37.29,37.29,0,0,1,11.62-16.23c11-9.14,24-13.82,37.62-17,6.06-1.4,12.28-2.12,18.42-3.15.81-.14,1.61-.31,2.39-.46,0-7,.59-14-.14-20.77-1.1-10.27-7.95-16.63-18.66-18.61-14.18-2.61-27.43.21-40,6.9l-2.29,1.18-2.13-2.66c4.58-3.62,8.84-7.47,13.57-10.64A83.13,83.13,0,0,1,678.2,433a87.88,87.88,0,0,1,25,1.89C718.48,438.52,727.5,448,730,463.5a91.72,91.72,0,0,1,1.12,13.65c.12,19.21,0,38.43.1,57.65a7.48,7.48,0,0,0,1.34,4.05c3.34,4.66,6.9,9.18,10.32,13.78a23.87,23.87,0,0,1,1.58,2.93l-52.77,11.29C690,560.53,688.35,554.23,686.58,547.46Zm-1.43-50.92c-3.28,1-6.26,1.79-9.09,2.9-14,5.5-21.43,17.84-19.48,32.3,1,7.16,5.19,12.24,11.47,13.46a23.65,23.65,0,0,0,14.85-1.78,3.37,3.37,0,0,0,2.3-3.56c-.09-13.48-.05-27-.05-40.42Z" transform="translate(-15.63 -373.59)"/><path class="cls-1" d="M982.31,532.25l1.74,1.71c-10.09,16.47-23.79,27.69-42.92,31.33-12.84,2.44-25.74,2.46-38.27-1.65C882,556.8,869,542.31,863.54,521.16a75.88,75.88,0,0,1,3.3-49.4c8.75-20.86,24.74-33.37,46.93-37.7,13.13-2.56,26.26-2.23,38.82,2.81,19.44,7.8,30.15,22.74,33.82,43,.69,3.81.86,7.7,1.3,11.85h-80.2c.33,4.37.45,8.49,1,12.56a50.48,50.48,0,0,0,5.84,18.41C922.2,536.57,934.27,543,950,542.78A56.06,56.06,0,0,0,982.31,532.25ZM943,485.17c-.61-8.91-.85-17.56-1.93-26.09a44.19,44.19,0,0,0-4.15-14c-4.26-8.48-15.29-8.78-20.28-.7a39.09,39.09,0,0,0-5,11.56c-1.63,7.27-2.55,14.71-3.48,22.12-.39,3.06-.07,6.22-.07,9.58Z" transform="translate(-15.63 -373.59)"/><path class="cls-1" d="M322.38,435.9h76.71a21.69,21.69,0,0,1-1.27,3.28c-3.16,5.38-6.42,10.7-9.53,16.1a4,4,0,0,0-.46,2.93q11.4,29.93,23,59.77a5.4,5.4,0,0,0,.56.83c.43-.88.82-1.62,1.14-2.39q12-28.62,24-57.25a4,4,0,0,0-.34-4.33c-3.45-5.2-6.76-10.49-10.08-15.77a23.06,23.06,0,0,1-1.32-3.14h34.74a13.68,13.68,0,0,1-1.34,2.94c-4.41,5.43-8.92,10.77-13.31,16.21a19.71,19.71,0,0,0-2.74,4.41q-24,54.78-48,109.59c-6.77,15.43-14.77,30.17-25.79,43.07-4.56,5.33-9.48,10.28-15.72,13.7-.79.43-1.63.76-2.53,1.18-.48-.78-.9-1.39-1.26-2q-7.9-14.29-15.79-28.6c-1.64-3-.78-4.48,2.54-4.68,10.38-.6,20.85-.35,31-3a81.56,81.56,0,0,0,10-3.76c5.75-2.35,7.65-7.77,10-12.81a3.07,3.07,0,0,0-.37-2.09q-24.65-56.15-49.35-112.26a15.36,15.36,0,0,0-1.51-2.56c-3.83-5.45-7.69-10.87-11.49-16.33A21.45,21.45,0,0,1,322.38,435.9Z" transform="translate(-15.63 -373.59)"/><path class="cls-1" d="M855.18,543.4c2,1.23,1.09,2.25.16,3.33-9,10.43-20.42,16.63-33.89,19.08a58.23,58.23,0,0,1-25-.64c-16.66-4.22-26.76-17.31-26.77-34.61q0-43.06,0-86.14v-3.63H754c-.12-.36-.25-.71-.37-1.06,19.1-11.76,38.32-23.3,57.49-34.94a26.82,26.82,0,0,1,4.23-1.64v32.5h37.48v5.07H815.53v3q0,42.83,0,85.63a33.54,33.54,0,0,0,.84,7.41c1.84,8.19,7,12.46,15.37,12.52S848,547.91,855.18,543.4Z" transform="translate(-15.63 -373.59)"/></g></svg>