<svg width="18" height="18" viewBox="0 0 18 18" fill="none" xmlns="http://www.w3.org/2000/svg">
<path fill-rule="evenodd" clip-rule="evenodd" d="M8.77396 12.6337L17.774 1.63366L16.226 0.367188L7.92576 10.512L4.70711 7.29332L3.29289 8.70753L7.29289 12.7075L8.07424 13.4889L8.77396 12.6337ZM2 5.00043C2 4.44814 2.44772 4.00043 3 4.00043H10V2.00043H3C1.34315 2.00043 0 3.34357 0 5.00043V15.0004C0 16.6573 1.34315 18.0004 3 18.0004H13C14.6569 18.0004 16 16.6573 16 15.0004V9.00043H14V15.0004C14 15.5527 13.5523 16.0004 13 16.0004H3C2.44772 16.0004 2 15.5527 2 15.0004V5.00043Z" fill="white"/>
</svg>
